Coordinates
version=1
nRows=24
nColumns=24
inDegrees=yes

Units are S.I. units (second, meters, Newtons, ...)
Angles are in degrees.

endheader
time	pelvis_tilt	pelvis_list	pelvis_rotation	pelvis_tx	pelvis_ty	pelvis_tz	hip_flexion_r	hip_adduction_r	hip_rotation_r	knee_angle_r	ankle_angle_r	subtalar_angle_r	mtp_angle_r	hip_flexion_l	hip_adduction_l	hip_rotation_l	knee_angle_l	ankle_angle_l	subtalar_angle_l	mtp_angle_l	lumbar_extension	lumbar_bending	lumbar_rotation
      4.62000000	     -0.52450829	      3.05610948	      5.69699618	      1.37006972	      0.66906307	     -0.21154072	     26.05027464	     -1.70032762	      6.34924573	      2.98665193	      7.61150527	    -10.21611147	      0.00000000	    -28.03612723	      6.13912721	     28.57644547	     -4.57029315	      7.59925918	    -17.20900566	      0.00000000	    -17.51796877	     -1.60492674	    -15.37681014
      4.63000000	     -0.38995124	      2.72553233	      5.96769824	      1.38773842	      0.66872294	     -0.21146187	     26.55828645	     -1.05532011	      6.36551172	     -0.17707470	      7.15153771	    -11.15994729	      0.00000000	    -27.52568216	      6.10153900	     24.81512972	     -8.16866382	      8.05827443	    -11.60038403	      0.00000000	    -17.38023466	     -0.99958232	    -15.72997879
      4.64000000	     -0.32482520	      2.23659761	      6.17031634	      1.40528563	      0.66847298	     -0.21118107	     27.33031553	     -0.17392075	      6.01728520	     -3.86778240	      6.50265504	    -11.70638944	      0.00000000	    -26.26378127	      5.84414261	     20.00052948	    -12.61978529	      8.14875200	     -5.61736592	      0.00000000	    -17.22218550	     -0.24803775	    -15.89500717
      4.65000000	     -0.47683462	      1.62024489	      6.34396201	      1.42258909	      0.66806654	     -0.21072832	     28.47957944	      0.83867625	      5.45098281	     -7.88307336	      5.65077880	    -12.03714817	      0.00000000	    -24.17577555	      5.26500934	     15.07289284	    -17.75162393	      7.27412998	     -0.52706090	      0.00000000	    -16.86315754	      0.58673643	    -15.90816392
      4.66000000	     -0.26274917	      0.81952464	      6.27534934	      1.43963963	      0.66801437	     -0.20998802	     29.29561785	      2.15762545	      4.94683570	    -11.97107446	      4.80581699	    -12.20663793	      0.00000000	    -22.17372662	      4.30121694	     10.60182321	    -23.07177742	      5.16897499	      2.86786713	      0.00000000	    -17.05277566	      1.62349394	    -15.55316874
      4.67000000	     -0.67454278	     -0.00014510	      6.34433189	      1.45645178	      0.66740290	     -0.20921656	     30.69341071	      3.38637482	      4.66360760	    -15.90371429	      3.70452918	    -12.90519186	      0.00000000	    -19.06300952	      3.14501325	      7.03809503	    -28.83134147	      2.15247809	      4.84143431	      0.00000000	    -16.46072896	      2.55152066	    -15.39954738
      4.68000000	     -0.36943724	     -1.15026390	      6.27501695	      1.47311633	      0.66760005	     -0.20856231	     31.13933623	      5.02341009	      4.35157413	    -19.45027099	      3.21014859	    -13.14117398	      0.00000000	    -16.57997766	      1.53123891	      4.10360397	    -34.49094610	     -1.50530683	      5.24270966	      0.00000000	    -16.77539841	      4.00250650	    -14.90890437
      4.69000000	     -0.69231685	     -2.14630061	      6.21201254	      1.48920283	      0.66715216	     -0.20753835	     32.11483849	      6.50284773	      4.37772242	    -22.69550446	      2.89126196	    -13.74501423	      0.00000000	    -13.07357234	      0.04261290	      1.97661802	    -40.39678323	     -5.21580954	      5.03890957	      0.00000000	    -16.37968317	      5.04966607	    -14.64207509
      4.70000000	     -0.79893494	     -3.24861933	      6.23333938	      1.50491513	      0.66711569	     -0.20681932	     32.57601928	      7.97746503	      4.00643188	    -25.37936593	      3.41891949	    -13.78769890	      0.00000000	     -9.64559851	     -1.51909310	      0.68000584	    -46.15284540	     -8.69319138	      4.07982868	      0.00000000	    -16.25361649	      6.28713495	    -14.33176287
      4.71000000	     -0.74661188	     -4.43601421	      6.31048835	      1.52031740	      0.66752709	     -0.20613819	     32.45929250	      9.49893706	      3.61114964	    -27.28643776	      4.39051227	    -13.86148197	      0.00000000	     -6.26661834	     -3.10411493	      0.02882437	    -51.68400894	    -11.43221096	      2.97784476	      0.00000000	    -16.28730765	      7.60486534	    -14.11354402
      4.72000000	     -1.00636034	     -5.57943603	      6.27111176	      1.53537443	      0.66786613	     -0.20540386	     32.37397656	     10.87874809	      2.93333734	    -28.60948026	      5.84294893	    -13.49841439	      0.00000000	     -2.45749160	     -4.43561716	     -0.11484486	    -56.99054893	    -13.02532958	      2.30871680	      0.00000000	    -15.89301873	      8.77727700	    -13.72100849
      4.73000000	     -1.07217335	     -6.71643762	      6.21375842	      1.55021768	      0.66888978	     -0.20475436	     31.61967113	     12.22717291	      2.32503719	    -29.12237421	      7.61285236	    -12.91230238	      0.00000000	      1.12903060	     -5.60364628	      0.11663084	    -61.85365880	    -13.42327379	      1.86361525	      0.00000000	    -15.69319511	      9.95307061	    -13.31627153
      4.74000000	     -1.23806568	     -7.70244864	      5.93231876	      1.56486618	      0.67030531	     -0.20395240	     30.60224874	     13.43331881	      1.77215472	    -29.04433572	      9.48990483	    -11.96342562	      0.00000000	      4.71643119	     -6.43909279	      0.43885484	    -66.20029883	    -12.66597349	      1.76668436	      0.00000000	    -15.36496151	     10.84511051	    -12.65689666
      4.75000000	     -1.36198196	     -8.53099459	      5.52978099	      1.57952307	      0.67234796	     -0.20314940	     29.14428519	     14.49063281	      1.39488518	    -28.39410396	     11.37006790	    -10.78743486	      0.00000000	      8.09663764	     -7.00418313	      0.78158389	    -69.91205068	    -11.23122312	      1.67114736	      0.00000000	    -15.03593227	     11.55107885	    -11.90337304
      4.76000000	     -1.38764551	     -9.15541448	      4.99624674	      1.59418044	      0.67503927	     -0.20225579	     27.25126511	     15.37964825	      1.26233396	    -27.31045197	     13.05233627	     -9.46383071	      0.00000000	     11.15038628	     -7.32554906	      1.00017532	    -72.93007911	     -9.33467964	      1.32211814	      0.00000000	    -14.82434858	     11.97716130	    -11.01930334
      4.77000000	     -1.32664299	     -9.56847949	      4.35980682	      1.60888193	      0.67827544	     -0.20128737	     24.99420735	     16.09602972	      1.48636701	    -25.90441448	     14.38356146	     -8.23659992	      0.00000000	     13.87501729	     -7.44753076	      1.03367454	    -75.24186068	     -7.34794037	      0.42762344	      0.00000000	    -14.71560521	     12.13844850	    -10.07882626
      4.78000000	     -1.27008109	     -9.72724253	      3.80888763	      1.62367326	      0.68185131	     -0.20037387	     22.50214585	     16.52845361	      2.11583625	    -24.20539594	     15.44100284	     -7.20438546	      0.00000000	     16.42533074	     -7.27913440	      1.12168455	    -76.89724317	     -5.56543348	     -0.82142740	      0.00000000	    -14.53148230	     11.98763313	     -9.34902681
      4.79000000	     -1.26688161	     -9.62153815	      2.98664737	      1.63824518	      0.68546352	     -0.19938163	     20.07722596	     16.68686891	      2.89044863	    -22.64814123	     16.36321048	     -5.97093004	      0.00000000	     18.78686777	     -6.91343339	      0.79370740	    -77.93060390	     -4.14833349	     -2.92191091	      0.00000000	    -14.43764925	     11.52766894	     -8.24780910
      4.80000000	     -1.26075130	     -9.31864008	      2.26677812	      1.65279303	      0.68911565	     -0.19843216	     17.52511441	     16.61857816	      4.14813974	    -20.89694239	     16.92190239	     -5.33415667	      0.00000000	     20.99303129	     -6.36839907	      0.47920703	    -78.38551601	     -3.20808042	     -5.57538414	      0.00000000	    -14.33596140	     10.83273447	     -7.40300029
      4.81000000	     -1.27075982	     -8.86905881	      1.53558654	      1.66720729	      0.69261478	     -0.19751358	     14.96070537	     16.35819558	      5.72211966	    -19.07903955	     17.20147748	     -5.12023081	      0.00000000	     23.05087095	     -5.72008268	      0.09409231	    -78.31550267	     -2.66624408	     -8.65867490	      0.00000000	    -14.28332444	      9.97640752	     -6.55539221
      4.82000000	     -1.28689496	     -8.31284890	      0.80477692	      1.68148402	      0.69586421	     -0.19664961	     12.38661854	     15.92507276	      7.53950310	    -17.17778715	     17.24158951	     -5.32213157	      0.00000000	     24.95661056	     -5.00190080	     -0.30670585	    -77.75511443	     -2.46605674	    -11.96278268	      0.00000000	    -14.29529551	      9.00668433	     -5.69611533
      4.83000000	     -1.00050876	     -7.74240093	      0.09822132	      1.69566730	      0.69912481	     -0.19575989	      9.36999862	     15.43065693	      9.98520060	    -15.01714558	     16.81625903	     -6.38494133	      0.00000000	     26.35180269	     -4.34982277	     -0.68556878	    -76.72890452	     -2.27444134	    -15.01024912	      0.00000000	    -14.76695989	      8.01644730	     -4.82444120
      4.84000000	     -1.16373044	     -7.15725967	     -0.53448785	      1.70951874	      0.70129399	     -0.19524176	      7.06470420	     14.75511608	     11.81388026	    -13.07838346	     16.64685936	     -7.02686283	      0.00000000	     28.21779225	     -3.59518188	     -0.87714865	    -75.40298889	     -2.53131025	    -18.21699521	      0.00000000	    -14.75676799	      7.09867248	     -4.03916661
      4.85000000	     -1.01204341	     -6.53325013	     -1.10785018	      1.72350093	      0.70340183	     -0.19465504	      4.28098319	     13.97363887	     14.18589105	    -10.83642601	     15.95265922	     -8.74658963	      0.00000000	     29.51601146	     -2.86720147	     -1.01109746	    -73.61747312	     -2.48384224	    -20.59710617	      0.00000000	    -15.12896941	      6.09756799	     -3.42863200
